# https://github.com/mikedh/trimesh
v -0.06500000 -0.15000001 -0.04000000
v -0.03480352 -0.09588908 -0.04000000
v -0.03281371 -0.09831366 -0.04000000
v -0.03719257 -0.09012140 -0.04000000
v -0.03750000 -0.08699995 -0.04000000
v -0.03719257 -0.08387851 -0.04000000
v -0.03628208 -0.09312288 -0.04000000
v -0.03628208 -0.08087702 -0.04000000
v -0.03480352 -0.07811083 -0.04000000
v -0.03281371 -0.07568625 -0.04000000
v -0.03750000 -0.02099993 -0.04000000
v -0.03038913 -0.10030347 -0.04000000
v -0.02762294 -0.10178202 -0.04000000
v -0.02462145 -0.10269251 -0.04000000
v -0.02150000 -0.10299996 -0.04000000
v -0.01837856 -0.10269251 -0.04000000
v -0.01537707 -0.10178202 -0.04000000
v -0.01261088 -0.10030347 -0.04000000
v -0.01018629 -0.09831366 -0.04000000
v -0.00819649 -0.09588908 -0.04000000
v -0.01018629 -0.07568625 -0.04000000
v -0.00819649 -0.07811083 -0.04000000
v -0.00671793 -0.09312288 -0.04000000
v -0.00580744 -0.09012140 -0.04000000
v -0.00550000 -0.08699995 -0.04000000
v -0.00671793 -0.08087702 -0.04000000
v -0.00580744 -0.08387851 -0.04000000
v -0.03038913 -0.07369643 -0.04000000
v -0.02762294 -0.07221788 -0.04000000
v -0.02462145 -0.07130739 -0.04000000
v -0.02150000 -0.07099995 -0.04000000
v -0.01837856 -0.07130739 -0.04000000
v -0.01537707 -0.07221788 -0.04000000
v -0.01261088 -0.07369643 -0.04000000
v -0.01550000 -0.02099993 -0.04000000
v -0.06500000 -0.15000001 0.04000000
v -0.03480352 -0.09588908 0.04000000
v -0.03281371 -0.09831366 0.04000000
v -0.03719257 -0.09012140 0.04000000
v -0.03750000 -0.08699995 0.04000000
v -0.03719257 -0.08387851 0.04000000
v -0.03628208 -0.09312288 0.04000000
v -0.03628208 -0.08087702 0.04000000
v -0.03480352 -0.07811083 0.04000000
v -0.03281371 -0.07568625 0.04000000
v -0.03750000 -0.02099993 0.04000000
v -0.03038913 -0.10030347 0.04000000
v -0.02762294 -0.10178202 0.04000000
v -0.02462145 -0.10269251 0.04000000
v -0.02150000 -0.10299996 0.04000000
v -0.01837856 -0.10269251 0.04000000
v -0.01537707 -0.10178202 0.04000000
v -0.01261088 -0.10030347 0.04000000
v -0.01018629 -0.09831366 0.04000000
v -0.00819649 -0.09588908 0.04000000
v -0.01018629 -0.07568625 0.04000000
v -0.00819649 -0.07811083 0.04000000
v -0.00671793 -0.09312288 0.04000000
v -0.00580744 -0.09012140 0.04000000
v -0.00550000 -0.08699995 0.04000000
v -0.00671793 -0.08087702 0.04000000
v -0.00580744 -0.08387851 0.04000000
v -0.03038913 -0.07369643 0.04000000
v -0.02762294 -0.07221788 0.04000000
v -0.02462145 -0.07130739 0.04000000
v -0.02150000 -0.07099995 0.04000000
v -0.01837856 -0.07130739 0.04000000
v -0.01537707 -0.07221788 0.04000000
v -0.01261088 -0.07369643 0.04000000
v -0.01550000 -0.02099993 0.04000000
v -0.03750000 0.02099993 -0.04000000
v -0.06500000 0.15000001 -0.04000000
v -0.03711570 0.08709816 -0.04000000
v -0.03750000 0.09099997 -0.04000000
v -0.03597759 0.08334630 -0.04000000
v -0.03412939 0.07988857 -0.04000000
v -0.03711570 0.09490178 -0.04000000
v -0.03597759 0.09865364 -0.04000000
v -0.03412939 0.10211137 -0.04000000
v -0.02861140 0.07437058 -0.04000000
v -0.02515367 0.07252238 -0.04000000
v -0.02140180 0.07138427 -0.04000000
v -0.01750000 0.07099997 -0.04000000
v -0.01550000 0.02099993 -0.04000000
v -0.01359819 0.07138427 -0.04000000
v -0.00984633 0.07252238 -0.04000000
v -0.00638859 0.07437058 -0.04000000
v -0.03164213 0.07685784 -0.04000000
v -0.03164213 0.10514210 -0.04000000
v -0.02861140 0.10762936 -0.04000000
v -0.02515367 0.10947756 -0.04000000
v -0.02140180 0.11061567 -0.04000000
v -0.01750000 0.11099997 -0.04000000
v -0.01359819 0.11061567 -0.04000000
v -0.00984633 0.10947756 -0.04000000
v -0.00335786 0.07685784 -0.04000000
v -0.00087061 0.07988857 -0.04000000
v -0.00638859 0.10762936 -0.04000000
v -0.00087061 0.10211137 -0.04000000
v -0.00335786 0.10514210 -0.04000000
v -0.03750000 0.02099993 0.04000000
v -0.06500000 0.15000001 0.04000000
v -0.03711570 0.08709816 0.04000000
v -0.03750000 0.09099997 0.04000000
v -0.03597759 0.08334630 0.04000000
v -0.03412939 0.07988857 0.04000000
v -0.03711570 0.09490178 0.04000000
v -0.03597759 0.09865364 0.04000000
v -0.03412939 0.10211137 0.04000000
v -0.02861140 0.07437058 0.04000000
v -0.02515367 0.07252238 0.04000000
v -0.02140180 0.07138427 0.04000000
v -0.01750000 0.07099997 0.04000000
v -0.01550000 0.02099993 0.04000000
v -0.01359819 0.07138427 0.04000000
v -0.00984633 0.07252238 0.04000000
v -0.00638859 0.07437058 0.04000000
v -0.03164213 0.07685784 0.04000000
v -0.03164213 0.10514210 0.04000000
v -0.02861140 0.10762936 0.04000000
v -0.02515367 0.10947756 0.04000000
v -0.02140180 0.11061567 0.04000000
v -0.01750000 0.11099997 0.04000000
v -0.01359819 0.11061567 0.04000000
v -0.00984633 0.10947756 0.04000000
v -0.00335786 0.07685784 0.04000000
v -0.00087061 0.07988857 0.04000000
v -0.00638859 0.10762936 0.04000000
v -0.00087061 0.10211137 0.04000000
v -0.00335786 0.10514210 0.04000000
v 0.00450000 -0.10299996 -0.04000000
v 0.00450000 -0.07099995 -0.04000000
v 0.00050001 -0.02099994 -0.04000000
v 0.03650000 -0.10299996 -0.04000000
v 0.06500000 -0.15000001 -0.04000000
v 0.03650000 -0.07099995 -0.04000000
v 0.00450000 -0.10299996 0.04000000
v 0.00450000 -0.07099995 0.04000000
v 0.00050001 -0.02099994 0.04000000
v 0.03650000 -0.10299996 0.04000000
v 0.06500000 -0.15000001 0.04000000
v 0.03650000 -0.07099995 0.04000000
v 0.00050001 0.02099994 -0.04000000
v 0.02249999 0.06699995 -0.04000000
v 0.02750001 0.06699995 -0.04000000
v 0.00097759 0.08334630 -0.04000000
v 0.00211571 0.08709816 -0.04000000
v 0.00250000 0.09099997 -0.04000000
v 0.00097759 0.09865364 -0.04000000
v 0.00211571 0.09490178 -0.04000000
v 0.02249999 0.11500000 -0.04000000
v 0.02750001 0.11500000 -0.04000000
v 0.03649999 0.00000000 -0.04000000
v 0.06500000 0.15000001 -0.04000000
v 0.00050001 0.02099994 0.04000000
v 0.02249999 0.06699995 0.04000000
v 0.02750001 0.06699995 0.04000000
v 0.00097759 0.08334630 0.04000000
v 0.00211571 0.08709816 0.04000000
v 0.00250000 0.09099997 0.04000000
v 0.00097759 0.09865364 0.04000000
v 0.00211571 0.09490178 0.04000000
v 0.02249999 0.11500000 0.04000000
v 0.02750001 0.11500000 0.04000000
v 0.03649999 0.00000000 0.04000000
v 0.06500000 0.15000001 0.04000000
f 1 7 2
f 1 2 3
f 1 3 12
f 1 12 13
f 1 4 7
f 1 5 4
f 2 7 42
f 2 37 3
f 4 42 7
f 4 5 39
f 5 6 40
f 6 8 41
f 8 9 44
f 9 10 45
f 1 72 5
f 5 72 6
f 6 72 8
f 8 72 9
f 9 72 10
f 1 13 135
f 20 23 131
f 23 24 131
f 24 25 131
f 25 27 131
f 1 135 36
f 3 47 12
f 12 47 13
f 13 49 14
f 10 28 45
f 14 50 15
f 15 51 16
f 16 52 17
f 17 53 18
f 18 54 19
f 19 54 20
f 21 22 57
f 20 55 23
f 23 59 24
f 24 60 25
f 25 62 27
f 22 26 61
f 26 27 61
f 11 29 28
f 11 35 29
f 29 35 30
f 30 35 31
f 31 35 32
f 32 35 33
f 21 34 35
f 21 35 22
f 26 35 27
f 22 35 26
f 33 35 34
f 27 35 132
f 35 84 132
f 84 133 132
f 28 29 64
f 29 30 64
f 30 31 65
f 31 32 66
f 32 33 67
f 11 46 35
f 33 34 68
f 21 69 34
f 35 70 84
f 2 42 37
f 3 37 38
f 4 39 42
f 5 40 39
f 6 41 40
f 8 43 41
f 8 44 43
f 9 45 44
f 36 37 42
f 36 38 37
f 36 47 38
f 36 48 47
f 36 49 48
f 36 42 39
f 36 39 40
f 1 36 102
f 11 101 46
f 36 40 102
f 40 41 102
f 41 43 102
f 43 44 102
f 44 45 102
f 3 38 47
f 13 47 48
f 13 48 49
f 14 49 50
f 15 50 51
f 16 51 52
f 17 52 53
f 18 53 54
f 20 54 55
f 21 56 69
f 21 57 56
f 23 55 58
f 23 58 59
f 24 59 60
f 25 60 62
f 27 62 61
f 22 61 57
f 36 141 49
f 55 137 58
f 58 137 59
f 28 63 45
f 28 64 63
f 30 65 64
f 31 66 65
f 32 67 66
f 33 68 67
f 35 46 70
f 34 69 68
f 45 70 46
f 45 63 155
f 63 64 155
f 64 65 155
f 66 67 139
f 65 66 155
f 67 68 139
f 68 69 139
f 56 139 69
f 45 155 70
f 66 139 155
f 10 72 28
f 11 28 72
f 11 72 71
f 71 72 84
f 1 102 72
f 11 71 101
f 72 73 75
f 72 74 73
f 72 77 74
f 72 75 84
f 72 78 77
f 72 79 78
f 72 89 79
f 72 90 89
f 72 91 90
f 72 92 91
f 73 103 75
f 73 74 103
f 74 77 104
f 75 106 76
f 76 106 88
f 77 78 108
f 78 79 108
f 75 76 84
f 76 88 84
f 80 84 88
f 80 81 84
f 84 143 133
f 81 143 84
f 81 82 143
f 82 83 143
f 83 85 143
f 85 86 143
f 86 87 143
f 87 96 143
f 71 84 114
f 80 111 81
f 81 112 82
f 82 112 83
f 83 115 85
f 85 116 86
f 86 117 87
f 72 154 92
f 80 88 118
f 79 89 119
f 89 90 120
f 90 91 120
f 91 92 121
f 92 93 123
f 93 94 123
f 94 95 124
f 95 98 125
f 87 117 96
f 96 126 97
f 98 100 130
f 99 129 100
f 99 149 129
f 45 46 102
f 46 101 102
f 101 114 102
f 74 104 103
f 77 107 104
f 75 105 106
f 75 103 105
f 77 108 107
f 79 109 108
f 79 119 109
f 102 105 103
f 102 103 104
f 102 104 107
f 102 114 105
f 102 107 108
f 102 108 109
f 102 109 119
f 102 119 120
f 102 120 121
f 71 114 101
f 80 110 111
f 81 111 112
f 83 112 113
f 70 114 84
f 83 113 115
f 85 115 116
f 86 116 117
f 105 114 106
f 106 114 118
f 110 118 114
f 110 114 111
f 70 155 114
f 111 114 155
f 111 155 112
f 112 155 113
f 113 155 115
f 115 155 116
f 116 155 117
f 117 155 126
f 88 106 118
f 80 118 110
f 89 120 119
f 91 121 120
f 92 122 121
f 92 123 122
f 72 102 166
f 94 124 123
f 95 125 124
f 96 117 126
f 97 126 127
f 97 127 158
f 98 128 125
f 98 130 128
f 100 129 130
f 102 121 166
f 13 14 135
f 14 15 135
f 15 16 135
f 16 17 135
f 17 18 135
f 18 19 135
f 19 20 135
f 27 132 131
f 20 131 135
f 131 132 137
f 131 137 134
f 132 133 153
f 132 153 136
f 133 139 153
f 132 136 142
f 131 134 135
f 134 136 135
f 134 140 136
f 135 136 154
f 135 154 141
f 132 138 137
f 36 135 141
f 134 137 140
f 49 141 50
f 50 141 51
f 51 141 52
f 52 141 53
f 53 141 54
f 54 141 55
f 59 137 138
f 55 141 137
f 132 142 138
f 133 155 139
f 139 165 153
f 56 57 165
f 61 62 165
f 57 61 165
f 59 165 60
f 60 165 62
f 59 138 165
f 56 165 139
f 138 142 165
f 136 140 142
f 137 141 140
f 140 166 142
f 140 141 166
f 96 144 143
f 96 97 144
f 143 145 153
f 143 144 145
f 133 143 155
f 143 153 155
f 97 146 144
f 146 147 144
f 147 148 144
f 148 150 144
f 149 144 150
f 149 151 144
f 92 154 93
f 93 154 94
f 94 154 95
f 98 154 100
f 99 100 154
f 95 154 98
f 99 154 149
f 149 154 151
f 97 158 146
f 146 158 147
f 147 159 148
f 148 160 150
f 149 150 162
f 72 166 154
f 136 153 154
f 153 145 154
f 154 145 152
f 154 152 151
f 153 165 155
f 126 155 156
f 126 156 127
f 155 165 156
f 165 157 156
f 147 158 159
f 148 159 160
f 150 160 162
f 149 162 161
f 129 149 161
f 127 156 158
f 158 156 159
f 159 156 160
f 160 156 163
f 160 163 162
f 161 162 163
f 121 122 166
f 122 123 166
f 123 124 166
f 124 125 166
f 128 130 166
f 129 166 130
f 125 128 166
f 129 161 166
f 161 163 166
f 141 154 166
f 142 166 165
f 165 166 157
f 166 164 157
f 166 163 164
f 145 144 156
f 144 151 163
f 152 145 157
f 151 152 164
f 145 156 157
f 156 144 163
f 157 164 152
f 151 164 163

