# https://github.com/mikedh/trimesh
v 0.00000000 -0.01120000 -0.01500000
v -0.00109251 -0.01109240 -0.01500000
v -0.00218501 -0.01098479 -0.01500000
v -0.00323553 -0.01066612 -0.01500000
v -0.00428605 -0.01034745 -0.01500000
v -0.00525422 -0.00982996 -0.01500000
v -0.00622239 -0.00931246 -0.01500000
v -0.00707099 -0.00861603 -0.01500000
v -0.00791960 -0.00791959 -0.01500000
v -0.00861603 -0.00707099 -0.01500000
v -0.00931246 -0.00622239 -0.01500000
v -0.00982996 -0.00525422 -0.01500000
v -0.01034745 -0.00428605 -0.01500000
v -0.01066612 -0.00323553 -0.01500000
v -0.01098480 -0.00218501 -0.01500000
v -0.01109240 -0.00109251 -0.01500000
v -0.01120000 0.00000000 -0.01500000
v -0.01109240 0.00109251 -0.01500000
v -0.01098480 0.00218501 -0.01500000
v -0.01066612 0.00323553 -0.01500000
v -0.01034745 0.00428605 -0.01500000
v -0.00982996 0.00525422 -0.01500000
v -0.00931246 0.00622239 -0.01500000
v -0.00861603 0.00707099 -0.01500000
v -0.00791960 0.00791959 -0.01500000
v -0.00707099 0.00861603 -0.01500000
v -0.00622239 0.00931246 -0.01500000
v -0.00525422 0.00982996 -0.01500000
v -0.00428605 0.01034745 -0.01500000
v -0.00323553 0.01066612 -0.01500000
v -0.00218501 0.01098479 -0.01500000
v -0.00109251 0.01109240 -0.01500000
v 0.00000000 0.01120000 -0.01500000
v 0.00109251 0.01109240 -0.01500000
v 0.00218501 0.01098479 -0.01500000
v 0.00323553 0.01066612 -0.01500000
v 0.00428606 0.01034745 -0.01500000
v 0.00525422 0.00982996 -0.01500000
v 0.00622239 0.00931246 -0.01500000
v 0.00707099 0.00861603 -0.01500000
v 0.00791960 0.00791959 -0.01500000
v 0.00861603 0.00707099 -0.01500000
v 0.00931246 0.00622239 -0.01500000
v 0.00982996 0.00525422 -0.01500000
v 0.01034745 0.00428605 -0.01500000
v 0.01066612 0.00323553 -0.01500000
v 0.01098480 0.00218501 -0.01500000
v 0.01109240 0.00109251 -0.01500000
v 0.01120000 0.00000000 -0.01500000
v 0.01109240 -0.00109251 -0.01500000
v 0.01098480 -0.00218501 -0.01500000
v 0.01066612 -0.00323553 -0.01500000
v 0.01034745 -0.00428605 -0.01500000
v 0.00982996 -0.00525422 -0.01500000
v 0.00931246 -0.00622239 -0.01500000
v 0.00861603 -0.00707099 -0.01500000
v 0.00791960 -0.00791959 -0.01500000
v 0.00707099 -0.00861603 -0.01500000
v 0.00622239 -0.00931246 -0.01500000
v 0.00525422 -0.00982996 -0.01500000
v 0.00428606 -0.01034745 -0.01500000
v 0.00323553 -0.01066612 -0.01500000
v 0.00218501 -0.01098479 -0.01500000
v 0.00109251 -0.01109240 -0.01500000
v 0.00000000 0.00000000 -0.01500000
v 0.00000000 -0.01120000 0.01500000
v -0.00109251 -0.01109240 0.01500000
v -0.00218501 -0.01098479 0.01500000
v -0.00323553 -0.01066612 0.01500000
v -0.00428605 -0.01034745 0.01500000
v -0.00525422 -0.00982996 0.01500000
v -0.00622239 -0.00931246 0.01500000
v -0.00707099 -0.00861603 0.01500000
v -0.00791960 -0.00791959 0.01500000
v -0.00861603 -0.00707099 0.01500000
v -0.00931246 -0.00622239 0.01500000
v -0.00982996 -0.00525422 0.01500000
v -0.01034745 -0.00428605 0.01500000
v -0.01066612 -0.00323553 0.01500000
v -0.01098480 -0.00218501 0.01500000
v -0.01109240 -0.00109251 0.01500000
v -0.01120000 0.00000000 0.01500000
v -0.01109240 0.00109251 0.01500000
v -0.01098480 0.00218501 0.01500000
v -0.01066612 0.00323553 0.01500000
v -0.01034745 0.00428605 0.01500000
v -0.00982996 0.00525422 0.01500000
v -0.00931246 0.00622239 0.01500000
v -0.00861603 0.00707099 0.01500000
v -0.00791960 0.00791959 0.01500000
v -0.00707099 0.00861603 0.01500000
v -0.00622239 0.00931246 0.01500000
v -0.00525422 0.00982996 0.01500000
v -0.00428605 0.01034745 0.01500000
v -0.00323553 0.01066612 0.01500000
v -0.00218501 0.01098479 0.01500000
v -0.00109251 0.01109240 0.01500000
v 0.00000000 0.01120000 0.01500000
v 0.00109251 0.01109240 0.01500000
v 0.00218501 0.01098479 0.01500000
v 0.00323553 0.01066612 0.01500000
v 0.00428606 0.01034745 0.01500000
v 0.00525422 0.00982996 0.01500000
v 0.00622239 0.00931246 0.01500000
v 0.00707099 0.00861603 0.01500000
v 0.00791960 0.00791959 0.01500000
v 0.00861603 0.00707099 0.01500000
v 0.00931246 0.00622239 0.01500000
v 0.00982996 0.00525422 0.01500000
v 0.01034745 0.00428605 0.01500000
v 0.01066612 0.00323553 0.01500000
v 0.01098480 0.00218501 0.01500000
v 0.01109240 0.00109251 0.01500000
v 0.01120000 0.00000000 0.01500000
v 0.01109240 -0.00109251 0.01500000
v 0.01098480 -0.00218501 0.01500000
v 0.01066612 -0.00323553 0.01500000
v 0.01034745 -0.00428605 0.01500000
v 0.00982996 -0.00525422 0.01500000
v 0.00931246 -0.00622239 0.01500000
v 0.00861603 -0.00707099 0.01500000
v 0.00791960 -0.00791959 0.01500000
v 0.00707099 -0.00861603 0.01500000
v 0.00622239 -0.00931246 0.01500000
v 0.00525422 -0.00982996 0.01500000
v 0.00428606 -0.01034745 0.01500000
v 0.00323553 -0.01066612 0.01500000
v 0.00218501 -0.01098479 0.01500000
v 0.00109251 -0.01109240 0.01500000
v 0.00000000 0.00000000 0.01500000
f 1 2 65
f 2 3 65
f 3 4 65
f 4 5 65
f 5 6 65
f 6 7 65
f 7 8 65
f 8 9 65
f 9 10 65
f 10 11 65
f 11 12 65
f 12 13 65
f 13 14 65
f 14 15 65
f 15 16 65
f 16 17 65
f 17 18 65
f 18 19 65
f 19 20 65
f 20 21 65
f 21 22 65
f 22 23 65
f 23 24 65
f 24 25 65
f 25 26 65
f 26 27 65
f 27 28 65
f 28 29 65
f 29 30 65
f 30 31 65
f 31 32 65
f 32 33 65
f 33 34 65
f 34 35 65
f 35 36 65
f 36 37 65
f 37 38 65
f 38 39 65
f 39 40 65
f 40 41 65
f 41 42 65
f 42 43 65
f 43 44 65
f 44 45 65
f 45 46 65
f 46 47 65
f 47 48 65
f 48 49 65
f 49 50 65
f 50 51 65
f 51 52 65
f 52 53 65
f 53 54 65
f 54 55 65
f 55 56 65
f 56 57 65
f 57 58 65
f 58 59 65
f 59 60 65
f 60 61 65
f 61 62 65
f 62 63 65
f 63 64 65
f 64 1 65
f 130 67 66
f 130 68 67
f 130 69 68
f 130 70 69
f 130 71 70
f 130 72 71
f 130 73 72
f 130 74 73
f 130 75 74
f 130 76 75
f 130 77 76
f 130 78 77
f 130 79 78
f 130 80 79
f 130 81 80
f 130 82 81
f 130 83 82
f 130 84 83
f 130 85 84
f 130 86 85
f 130 87 86
f 130 88 87
f 130 89 88
f 130 90 89
f 130 91 90
f 130 92 91
f 130 93 92
f 130 94 93
f 130 95 94
f 130 96 95
f 130 97 96
f 130 98 97
f 130 99 98
f 130 100 99
f 130 101 100
f 130 102 101
f 130 103 102
f 130 104 103
f 130 105 104
f 130 106 105
f 130 107 106
f 130 108 107
f 130 109 108
f 130 110 109
f 130 111 110
f 130 112 111
f 130 113 112
f 130 114 113
f 130 115 114
f 130 116 115
f 130 117 116
f 130 118 117
f 130 119 118
f 130 120 119
f 130 121 120
f 130 122 121
f 130 123 122
f 130 124 123
f 130 125 124
f 130 126 125
f 130 127 126
f 130 128 127
f 130 129 128
f 130 66 129
f 66 67 1
f 1 67 2
f 67 68 2
f 2 68 3
f 68 69 3
f 3 69 4
f 69 70 4
f 4 70 5
f 70 71 5
f 5 71 6
f 71 72 6
f 6 72 7
f 72 73 7
f 7 73 8
f 73 74 8
f 8 74 9
f 74 75 9
f 9 75 10
f 75 76 10
f 10 76 11
f 76 77 11
f 11 77 12
f 77 78 12
f 12 78 13
f 78 79 13
f 13 79 14
f 79 80 14
f 14 80 15
f 80 81 15
f 15 81 16
f 81 82 16
f 16 82 17
f 82 83 17
f 17 83 18
f 83 84 18
f 18 84 19
f 84 85 19
f 19 85 20
f 85 86 20
f 20 86 21
f 86 87 21
f 21 87 22
f 87 88 22
f 22 88 23
f 88 89 23
f 23 89 24
f 89 90 24
f 24 90 25
f 90 91 25
f 25 91 26
f 91 92 26
f 26 92 27
f 92 93 27
f 27 93 28
f 93 94 28
f 28 94 29
f 94 95 29
f 29 95 30
f 95 96 30
f 30 96 31
f 96 97 31
f 31 97 32
f 97 98 32
f 32 98 33
f 98 99 33
f 33 99 34
f 99 100 34
f 34 100 35
f 100 101 35
f 35 101 36
f 101 102 36
f 36 102 37
f 102 103 37
f 37 103 38
f 103 104 38
f 38 104 39
f 104 105 39
f 39 105 40
f 105 106 40
f 40 106 41
f 106 107 41
f 41 107 42
f 107 108 42
f 42 108 43
f 108 109 43
f 43 109 44
f 109 110 44
f 44 110 45
f 110 111 45
f 45 111 46
f 111 112 46
f 46 112 47
f 112 113 47
f 47 113 48
f 113 114 48
f 48 114 49
f 114 115 49
f 49 115 50
f 115 116 50
f 50 116 51
f 116 117 51
f 51 117 52
f 117 118 52
f 52 118 53
f 118 119 53
f 53 119 54
f 119 120 54
f 54 120 55
f 120 121 55
f 55 121 56
f 121 122 56
f 56 122 57
f 122 123 57
f 57 123 58
f 123 124 58
f 58 124 59
f 124 125 59
f 59 125 60
f 125 126 60
f 60 126 61
f 126 127 61
f 61 127 62
f 127 128 62
f 62 128 63
f 129 66 64
f 64 66 1
f 128 129 63
f 63 129 64

