# https://github.com/mikedh/trimesh
v -0.00770000 -0.01469995 -0.01500000
v 0.00000000 -0.01469995 -0.01500000
v 0.00770000 -0.01469995 -0.01500000
v 0.00770000 -0.00000000 -0.01500000
v 0.00770000 0.01469995 -0.01500000
v 0.00000000 0.01469995 -0.01500000
v -0.00277201 0.01469995 -0.01500000
v -0.00770000 0.01469995 -0.01500000
v -0.00770000 -0.00000000 -0.01500000
v -0.00030800 0.00163333 -0.01500000
v -0.00770000 -0.01469995 0.01500000
v 0.00000000 -0.01469995 0.01500000
v 0.00770000 -0.01469995 0.01500000
v 0.00770000 -0.00000000 0.01500000
v 0.00770000 0.01469995 0.01500000
v 0.00000000 0.01469995 0.01500000
v -0.00277201 0.01469995 0.01500000
v -0.00770000 0.01469995 0.01500000
v -0.00770000 -0.00000000 0.01500000
v -0.00030800 0.00163333 0.01500000
f 10 2 1
f 10 3 2
f 10 4 3
f 10 5 4
f 10 6 5
f 10 7 6
f 10 8 7
f 10 9 8
f 10 1 9
f 11 12 20
f 12 13 20
f 13 14 20
f 14 15 20
f 15 16 20
f 16 17 20
f 17 18 20
f 18 19 20
f 19 11 20
f 12 11 2
f 2 11 1
f 13 12 3
f 3 12 2
f 14 13 4
f 4 13 3
f 15 14 5
f 5 14 4
f 16 15 6
f 6 15 5
f 17 16 7
f 7 16 6
f 18 17 8
f 8 17 7
f 11 19 1
f 1 19 9
f 19 18 9
f 9 18 8

