# https://github.com/mikedh/trimesh
v -0.01120000 -0.01120000 -0.01500000
v 0.00000000 -0.01120000 -0.01500000
v 0.01120000 -0.01120000 -0.01500000
v 0.01120000 -0.00000000 -0.01500000
v 0.01120000 0.01120000 -0.01500000
v 0.00000000 0.01120000 -0.01500000
v -0.01120000 0.01120000 -0.01500000
v -0.01120000 -0.00000000 -0.01500000
v 0.00000000 -0.00000000 -0.01500000
v -0.01120000 -0.01120000 0.01500000
v 0.00000000 -0.01120000 0.01500000
v 0.01120000 -0.01120000 0.01500000
v 0.01120000 -0.00000000 0.01500000
v 0.01120000 0.01120000 0.01500000
v 0.00000000 0.01120000 0.01500000
v -0.01120000 0.01120000 0.01500000
v -0.01120000 -0.00000000 0.01500000
v 0.00000000 -0.00000000 0.01500000
f 9 2 1
f 9 3 2
f 9 4 3
f 9 5 4
f 9 6 5
f 9 7 6
f 9 8 7
f 9 1 8
f 10 11 18
f 11 12 18
f 12 13 18
f 13 14 18
f 14 15 18
f 15 16 18
f 16 17 18
f 17 10 18
f 11 10 2
f 2 10 1
f 12 11 3
f 3 11 2
f 13 12 4
f 4 12 3
f 14 13 5
f 5 13 4
f 15 14 6
f 6 14 5
f 16 15 7
f 7 15 6
f 10 17 1
f 1 17 8
f 17 16 8
f 8 16 7

